<svg xmlns="http://www.w3.org/2000/svg" viewBox="0 0 64 64">
  <rect width="64" height="64" rx="20" fill="#ecdcba"/>
  <path d="M13 28C4 24 4 41 12 41L17 33M51 28C60 24 60 41 52 41L47 33" fill="#40332b"/>
  <ellipse cx="32" cy="34" rx="21" ry="20" fill="#f0c298"/>
  <path d="M11 30C8 1 55 1 53 31L48 26Q45 21 41 27Q38 30 34 26Q29 22 25 26Q21 29 17 25Z" fill="#40332b"/>
  <ellipse cx="19" cy="40" rx="4" ry="2" fill="#e5a087" opacity=".5"/>
  <ellipse cx="45" cy="40" rx="4" ry="2" fill="#e5a087" opacity=".5"/>
  <g fill="#392b24"><ellipse cx="25" cy="35" rx="2.5" ry="3.3"/><ellipse cx="39" cy="35" rx="2.5" ry="3.3"/></g>
  <g fill="#fff8e9"><circle cx="24.4" cy="34" r=".9"/><circle cx="38.4" cy="34" r=".9"/></g>
  <path d="M28 43Q32 48 36 43" fill="none" stroke="#9f6650" stroke-width="1.7" stroke-linecap="round"/>
  <path d="M14 19C5 12 9 27 16 23C24 27 27 11 18 18Z" fill="#c97961"/>
  <circle cx="17" cy="21" r="2.2" fill="#e7ad8c"/>
</svg>
